<?xml version="1.0" encoding="UTF-8" standalone="no"?>
<!-- Created with Inkscape (http://www.inkscape.org/) -->

<svg
   xmlns:dc="http://purl.org/dc/elements/1.1/"
   xmlns:cc="http://creativecommons.org/ns#"
   xmlns:rdf="http://www.w3.org/1999/02/22-rdf-syntax-ns#"
   xmlns:svg="http://www.w3.org/2000/svg"
   xmlns="http://www.w3.org/2000/svg"
   xmlns:sodipodi="http://sodipodi.sourceforge.net/DTD/sodipodi-0.dtd"
   xmlns:inkscape="http://www.inkscape.org/namespaces/inkscape"
   width="134.83556mm"
   height="139.64528mm"
   viewBox="0 0 134.83556 139.64528"
   version="1.1"
   id="svg2404"
   inkscape:version="0.92.2 5c3e80d, 2017-08-06"
   sodipodi:docname="allyl-radical-mo.svg"
   inkscape:export-filename="/Users/rich/Desktop/allyl-radical-mo.png"
   inkscape:export-xdpi="45.790001"
   inkscape:export-ydpi="45.790001">
  <defs
     id="defs2398">
    <marker
       inkscape:stockid="Arrow2Mend"
       orient="auto"
       refY="0"
       refX="0"
       id="marker4878"
       style="overflow:visible"
       inkscape:isstock="true">
      <path
         id="path4876"
         style="fill:#000000;fill-opacity:1;fill-rule:evenodd;stroke:#000000;stroke-width:0.625;stroke-linejoin:round;stroke-opacity:1"
         d="M 8.7185878,4.0337352 -2.2072895,0.01601326 8.7185884,-4.0017078 c -1.7454984,2.3720609 -1.7354408,5.6174519 -6e-7,8.035443 z"
         transform="scale(-0.6)"
         inkscape:connector-curvature="0" />
    </marker>
    <marker
       inkscape:isstock="true"
       style="overflow:visible"
       id="marker4176"
       refX="0"
       refY="0"
       orient="auto"
       inkscape:stockid="Arrow2Mend">
      <path
         transform="scale(-0.6)"
         d="M 8.7185878,4.0337352 -2.2072895,0.01601326 8.7185884,-4.0017078 c -1.7454984,2.3720609 -1.7354408,5.6174519 -6e-7,8.035443 z"
         style="fill:#000000;fill-opacity:1;fill-rule:evenodd;stroke:#000000;stroke-width:0.625;stroke-linejoin:round;stroke-opacity:1"
         id="path4174"
         inkscape:connector-curvature="0" />
    </marker>
    <marker
       inkscape:stockid="Arrow2Mend"
       orient="auto"
       refY="0"
       refX="0"
       id="marker4064"
       style="overflow:visible"
       inkscape:isstock="true">
      <path
         id="path4062"
         style="fill:#000000;fill-opacity:1;fill-rule:evenodd;stroke:#000000;stroke-width:0.625;stroke-linejoin:round;stroke-opacity:1"
         d="M 8.7185878,4.0337352 -2.2072895,0.01601326 8.7185884,-4.0017078 c -1.7454984,2.3720609 -1.7354408,5.6174519 -6e-7,8.035443 z"
         transform="scale(-0.6)"
         inkscape:connector-curvature="0" />
    </marker>
    <marker
       inkscape:stockid="Arrow2Mend"
       orient="auto"
       refY="0"
       refX="0"
       id="marker3964"
       style="overflow:visible"
       inkscape:isstock="true">
      <path
         id="path3962"
         style="fill:#000000;fill-opacity:1;fill-rule:evenodd;stroke:#000000;stroke-width:0.625;stroke-linejoin:round;stroke-opacity:1"
         d="M 8.7185878,4.0337352 -2.2072895,0.01601326 8.7185884,-4.0017078 c -1.7454984,2.3720609 -1.7354408,5.6174519 -6e-7,8.035443 z"
         transform="scale(-0.6)"
         inkscape:connector-curvature="0" />
    </marker>
    <marker
       inkscape:isstock="true"
       style="overflow:visible"
       id="marker3876"
       refX="0"
       refY="0"
       orient="auto"
       inkscape:stockid="Arrow2Mend">
      <path
         transform="scale(-0.6)"
         d="M 8.7185878,4.0337352 -2.2072895,0.01601326 8.7185884,-4.0017078 c -1.7454984,2.3720609 -1.7354408,5.6174519 -6e-7,8.035443 z"
         style="fill:#000000;fill-opacity:1;fill-rule:evenodd;stroke:#000000;stroke-width:0.625;stroke-linejoin:round;stroke-opacity:1"
         id="path3874"
         inkscape:connector-curvature="0" />
    </marker>
    <marker
       inkscape:isstock="true"
       style="overflow:visible"
       id="marker3604"
       refX="0"
       refY="0"
       orient="auto"
       inkscape:stockid="Arrow2Mend"
       inkscape:collect="always">
      <path
         transform="scale(-0.6)"
         d="M 8.7185878,4.0337352 -2.2072895,0.01601326 8.7185884,-4.0017078 c -1.7454984,2.3720609 -1.7354408,5.6174519 -6e-7,8.035443 z"
         style="fill:#000000;fill-opacity:1;fill-rule:evenodd;stroke:#000000;stroke-width:0.625;stroke-linejoin:round;stroke-opacity:1"
         id="path3602"
         inkscape:connector-curvature="0" />
    </marker>
    <marker
       inkscape:stockid="Arrow2Mend"
       orient="auto"
       refY="0"
       refX="0"
       id="Arrow2Mend"
       style="overflow:visible"
       inkscape:isstock="true"
       inkscape:collect="always">
      <path
         id="path3005"
         style="fill:#000000;fill-opacity:1;fill-rule:evenodd;stroke:#000000;stroke-width:0.625;stroke-linejoin:round;stroke-opacity:1"
         d="M 8.7185878,4.0337352 -2.2072895,0.01601326 8.7185884,-4.0017078 c -1.7454984,2.3720609 -1.7354408,5.6174519 -6e-7,8.035443 z"
         transform="scale(-0.6)"
         inkscape:connector-curvature="0" />
    </marker>
    <marker
       inkscape:stockid="Arrow2Lend"
       orient="auto"
       refY="0"
       refX="0"
       id="Arrow2Lend"
       style="overflow:visible"
       inkscape:isstock="true">
      <path
         id="path2999"
         style="fill:#000000;fill-opacity:1;fill-rule:evenodd;stroke:#000000;stroke-width:0.625;stroke-linejoin:round;stroke-opacity:1"
         d="M 8.7185878,4.0337352 -2.2072895,0.01601326 8.7185884,-4.0017078 c -1.7454984,2.3720609 -1.7354408,5.6174519 -6e-7,8.035443 z"
         transform="matrix(-1.1,0,0,-1.1,-1.1,0)"
         inkscape:connector-curvature="0" />
    </marker>
    <marker
       inkscape:stockid="Arrow1Lend"
       orient="auto"
       refY="0"
       refX="0"
       id="Arrow1Lend"
       style="overflow:visible"
       inkscape:isstock="true">
      <path
         id="path2981"
         d="M 0,0 5,-5 -12.5,0 5,5 Z"
         style="fill:#000000;fill-opacity:1;fill-rule:evenodd;stroke:#000000;stroke-width:1.00000003pt;stroke-opacity:1"
         transform="matrix(-0.8,0,0,-0.8,-10,0)"
         inkscape:connector-curvature="0" />
    </marker>
  </defs>
  <sodipodi:namedview
     id="base"
     pagecolor="#ffffff"
     bordercolor="#666666"
     borderopacity="1.0"
     inkscape:pageopacity="0.0"
     inkscape:pageshadow="2"
     inkscape:zoom="0.98994949"
     inkscape:cx="266.54833"
     inkscape:cy="118.28383"
     inkscape:document-units="mm"
     inkscape:current-layer="layer1"
     showgrid="false"
     inkscape:window-width="1920"
     inkscape:window-height="1035"
     inkscape:window-x="0"
     inkscape:window-y="1"
     inkscape:window-maximized="1"
     fit-margin-top="0"
     fit-margin-left="0"
     fit-margin-right="0"
     fit-margin-bottom="0" />
  <metadata
     id="metadata2401">
    <rdf:RDF>
      <cc:Work
         rdf:about="">
        <dc:format>image/svg+xml</dc:format>
        <dc:type
           rdf:resource="http://purl.org/dc/dcmitype/StillImage" />
        <dc:title></dc:title>
      </cc:Work>
    </rdf:RDF>
  </metadata>
  <g
     inkscape:label="Layer 1"
     inkscape:groupmode="layer"
     id="layer1"
     transform="translate(-17.203197,20.952808)">
    <path
       style="fill:none;stroke:#000000;stroke-width:0.79374999;stroke-linecap:butt;stroke-linejoin:miter;stroke-miterlimit:4;stroke-dasharray:none;stroke-opacity:1"
       d="M 22.173891,104.77741 45.142317,91.515946 68.110742,104.77741"
       id="path2954"
       inkscape:connector-curvature="0"
       sodipodi:nodetypes="ccc" />
    <g
       id="g2960"
       transform="matrix(0.65819938,0,0,0.65823086,5.9895609,-7.051532)"
       style="stroke-width:1.51926017">
      <path
         sodipodi:nodetypes="sssss"
         inkscape:connector-curvature="0"
         id="path2951"
         d="m 31.537804,156.16982 c 0,-2.74792 -1.047822,-7.23714 -6.949004,-7.23714 -5.901184,0 -6.949006,4.48922 -6.949006,7.23714 0,2.7479 1.047822,13.41885 6.949006,13.41885 5.901176,0 6.949004,-10.67095 6.949004,-13.41885 z"
         style="fill:none;fill-opacity:1;stroke:#000000;stroke-width:1.20591271;stroke-linecap:round;stroke-linejoin:round;stroke-miterlimit:4;stroke-dasharray:none;stroke-dashoffset:0;stroke-opacity:1" />
      <path
         style="fill:#000000;fill-opacity:1;stroke:#000000;stroke-width:1.20591271;stroke-linecap:round;stroke-linejoin:round;stroke-miterlimit:4;stroke-dasharray:none;stroke-dashoffset:0;stroke-opacity:1"
         d="m 31.537804,183.19318 c 0,2.74792 -1.047822,7.23714 -6.949004,7.23714 -5.901184,0 -6.949006,-4.48922 -6.949006,-7.23714 0,-2.7479 1.047822,-13.41885 6.949006,-13.41885 5.901176,0 6.949004,10.67095 6.949004,13.41885 z"
         id="path2956"
         inkscape:connector-curvature="0"
         sodipodi:nodetypes="sssss" />
    </g>
    <g
       id="g2966"
       transform="matrix(0.65819938,0,0,0.65823086,28.682807,-20.069986)"
       style="stroke-width:1.51926017">
      <path
         style="fill:none;fill-opacity:1;stroke:#000000;stroke-width:1.20591271;stroke-linecap:round;stroke-linejoin:round;stroke-miterlimit:4;stroke-dasharray:none;stroke-dashoffset:0;stroke-opacity:1"
         d="m 31.537804,156.16982 c 0,-2.74792 -1.047822,-7.23714 -6.949004,-7.23714 -5.901184,0 -6.949006,4.48922 -6.949006,7.23714 0,2.7479 1.047822,13.41885 6.949006,13.41885 5.901176,0 6.949004,-10.67095 6.949004,-13.41885 z"
         id="path2962"
         inkscape:connector-curvature="0"
         sodipodi:nodetypes="sssss" />
      <path
         sodipodi:nodetypes="sssss"
         inkscape:connector-curvature="0"
         id="path2964"
         d="m 31.537804,183.19318 c 0,2.74792 -1.047822,7.23714 -6.949004,7.23714 -5.901184,0 -6.949006,-4.48922 -6.949006,-7.23714 0,-2.7479 1.047822,-13.41885 6.949006,-13.41885 5.901176,0 6.949004,10.67095 6.949004,13.41885 z"
         style="fill:#000000;fill-opacity:1;stroke:#000000;stroke-width:1.20591271;stroke-linecap:round;stroke-linejoin:round;stroke-miterlimit:4;stroke-dasharray:none;stroke-dashoffset:0;stroke-opacity:1" />
    </g>
    <g
       transform="matrix(0.65819938,0,0,0.65823086,51.903804,-7.403382)"
       id="g2972"
       style="stroke-width:1.51926017">
      <path
         sodipodi:nodetypes="sssss"
         inkscape:connector-curvature="0"
         id="path2968"
         d="m 31.537804,156.16982 c 0,-2.74792 -1.047822,-7.23714 -6.949004,-7.23714 -5.901184,0 -6.949006,4.48922 -6.949006,7.23714 0,2.7479 1.047822,13.41885 6.949006,13.41885 5.901176,0 6.949004,-10.67095 6.949004,-13.41885 z"
         style="fill:none;fill-opacity:1;stroke:#000000;stroke-width:1.20591271;stroke-linecap:round;stroke-linejoin:round;stroke-miterlimit:4;stroke-dasharray:none;stroke-dashoffset:0;stroke-opacity:1" />
      <path
         style="fill:#000000;fill-opacity:1;stroke:#000000;stroke-width:1.20591271;stroke-linecap:round;stroke-linejoin:round;stroke-miterlimit:4;stroke-dasharray:none;stroke-dashoffset:0;stroke-opacity:1"
         d="m 31.537804,183.19318 c 0,2.74792 -1.047822,7.23714 -6.949004,7.23714 -5.901184,0 -6.949006,-4.48922 -6.949006,-7.23714 0,-2.7479 1.047822,-13.41885 6.949006,-13.41885 5.901176,0 6.949004,10.67095 6.949004,13.41885 z"
         id="path2970"
         inkscape:connector-curvature="0"
         sodipodi:nodetypes="sssss" />
    </g>
    <path
       style="fill:#000000;fill-opacity:1;stroke:#000000;stroke-width:0.79374999;stroke-linecap:butt;stroke-linejoin:miter;stroke-miterlimit:4;stroke-dasharray:none;stroke-opacity:1"
       d="M 81.809634,104.87863 H 101.68821"
       id="path2974"
       inkscape:connector-curvature="0" />
    <path
       style="fill:none;stroke:#000000;stroke-width:0.79374999;stroke-linecap:butt;stroke-linejoin:miter;stroke-miterlimit:3.9000001;stroke-dasharray:none;stroke-opacity:1;marker-end:url(#Arrow2Mend)"
       d="M 88.754315,103.47085 V 94.696853"
       id="path2976"
       inkscape:connector-curvature="0" />
    <path
       inkscape:connector-curvature="0"
       id="path3600"
       d="m 94.919452,94.164489 v 8.774001"
       style="fill:none;stroke:#000000;stroke-width:0.79374999;stroke-linecap:butt;stroke-linejoin:miter;stroke-miterlimit:3.9000001;stroke-dasharray:none;stroke-opacity:1;marker-end:url(#marker3604)" />
    <path
       sodipodi:nodetypes="ccc"
       inkscape:connector-curvature="0"
       id="path3810"
       d="M 22.173891,56.222094 45.142317,42.960632 68.110742,56.222094"
       style="fill:none;stroke:#000000;stroke-width:0.79374999;stroke-linecap:butt;stroke-linejoin:miter;stroke-miterlimit:4;stroke-dasharray:none;stroke-opacity:1" />
    <g
       id="g3816"
       transform="matrix(0.65819938,0,0,0.65823086,5.9895609,-55.606846)"
       style="stroke-width:1.51926017">
      <path
         style="fill:none;fill-opacity:1;stroke:#000000;stroke-width:1.20591271;stroke-linecap:round;stroke-linejoin:round;stroke-miterlimit:4;stroke-dasharray:none;stroke-dashoffset:0;stroke-opacity:1"
         d="m 31.537804,156.16982 c 0,-2.74792 -1.047822,-7.23714 -6.949004,-7.23714 -5.901184,0 -6.949006,4.48922 -6.949006,7.23714 0,2.7479 1.047822,13.41885 6.949006,13.41885 5.901176,0 6.949004,-10.67095 6.949004,-13.41885 z"
         id="path3812"
         inkscape:connector-curvature="0"
         sodipodi:nodetypes="sssss" />
      <path
         sodipodi:nodetypes="sssss"
         inkscape:connector-curvature="0"
         id="path3814"
         d="m 31.537804,183.19318 c 0,2.74792 -1.047822,7.23714 -6.949004,7.23714 -5.901184,0 -6.949006,-4.48922 -6.949006,-7.23714 0,-2.7479 1.047822,-13.41885 6.949006,-13.41885 5.901176,0 6.949004,10.67095 6.949004,13.41885 z"
         style="fill:#000000;fill-opacity:1;stroke:#000000;stroke-width:1.20591271;stroke-linecap:round;stroke-linejoin:round;stroke-miterlimit:4;stroke-dasharray:none;stroke-dashoffset:0;stroke-opacity:1" />
    </g>
    <g
       id="g3828"
       transform="matrix(0.65819938,0,0,0.65823086,51.903804,-55.958696)"
       style="stroke-width:1.51926017">
      <path
         style="fill:none;fill-opacity:1;stroke:#000000;stroke-width:1.20591271;stroke-linecap:round;stroke-linejoin:round;stroke-miterlimit:4;stroke-dasharray:none;stroke-dashoffset:0;stroke-opacity:1"
         d="m 31.537804,156.16982 c 0,-2.74792 -1.047822,-7.23714 -6.949004,-7.23714 -5.901184,0 -6.949006,4.48922 -6.949006,7.23714 0,2.7479 1.047822,13.41885 6.949006,13.41885 5.901176,0 6.949004,-10.67095 6.949004,-13.41885 z"
         id="path3824"
         inkscape:connector-curvature="0"
         sodipodi:nodetypes="sssss" />
      <path
         sodipodi:nodetypes="sssss"
         inkscape:connector-curvature="0"
         id="path3826"
         d="m 31.537804,183.19318 c 0,2.74792 -1.047822,7.23714 -6.949004,7.23714 -5.901184,0 -6.949006,-4.48922 -6.949006,-7.23714 0,-2.7479 1.047822,-13.41885 6.949006,-13.41885 5.901176,0 6.949004,10.67095 6.949004,13.41885 z"
         style="fill:#000000;fill-opacity:1;stroke:#000000;stroke-width:1.20591271;stroke-linecap:round;stroke-linejoin:round;stroke-miterlimit:4;stroke-dasharray:none;stroke-dashoffset:0;stroke-opacity:1" />
    </g>
    <path
       inkscape:connector-curvature="0"
       id="path3830"
       d="M 81.809634,56.323317 H 101.68821"
       style="fill:#000000;fill-opacity:1;stroke:#000000;stroke-width:0.79374999;stroke-linecap:butt;stroke-linejoin:miter;stroke-miterlimit:4;stroke-dasharray:none;stroke-opacity:1" />
    <path
       style="fill:none;stroke:#000000;stroke-width:0.79374999;stroke-linecap:butt;stroke-linejoin:miter;stroke-miterlimit:4;stroke-dasharray:none;stroke-opacity:1"
       d="M 22.173891,5.9075296 45.142317,-7.3539331 68.110742,5.9075296"
       id="path3836"
       inkscape:connector-curvature="0"
       sodipodi:nodetypes="ccc" />
    <g
       transform="matrix(0.65819938,0,0,0.65823086,5.9895609,-105.92141)"
       id="g3842"
       style="stroke-width:1.51926017">
      <path
         sodipodi:nodetypes="sssss"
         inkscape:connector-curvature="0"
         id="path3838"
         d="m 31.537804,156.16982 c 0,-2.74792 -1.047822,-7.23714 -6.949004,-7.23714 -5.901184,0 -6.949006,4.48922 -6.949006,7.23714 0,2.7479 1.047822,13.41885 6.949006,13.41885 5.901176,0 6.949004,-10.67095 6.949004,-13.41885 z"
         style="fill:none;fill-opacity:1;stroke:#000000;stroke-width:1.20591271;stroke-linecap:round;stroke-linejoin:round;stroke-miterlimit:4;stroke-dasharray:none;stroke-dashoffset:0;stroke-opacity:1" />
      <path
         style="fill:#000000;fill-opacity:1;stroke:#000000;stroke-width:1.20591271;stroke-linecap:round;stroke-linejoin:round;stroke-miterlimit:4;stroke-dasharray:none;stroke-dashoffset:0;stroke-opacity:1"
         d="m 31.537804,183.19318 c 0,2.74792 -1.047822,7.23714 -6.949004,7.23714 -5.901184,0 -6.949006,-4.48922 -6.949006,-7.23714 0,-2.7479 1.047822,-13.41885 6.949006,-13.41885 5.901176,0 6.949004,10.67095 6.949004,13.41885 z"
         id="path3840"
         inkscape:connector-curvature="0"
         sodipodi:nodetypes="sssss" />
    </g>
    <g
       id="g3848"
       transform="matrix(0.65819938,0,0,-0.65823086,29.210557,104.79119)"
       style="stroke-width:1.51926017">
      <path
         style="fill:none;fill-opacity:1;stroke:#000000;stroke-width:1.20591271;stroke-linecap:round;stroke-linejoin:round;stroke-miterlimit:4;stroke-dasharray:none;stroke-dashoffset:0;stroke-opacity:1"
         d="m 31.537804,156.16982 c 0,-2.74792 -1.047822,-7.23714 -6.949004,-7.23714 -5.901184,0 -6.949006,4.48922 -6.949006,7.23714 0,2.7479 1.047822,13.41885 6.949006,13.41885 5.901176,0 6.949004,-10.67095 6.949004,-13.41885 z"
         id="path3844"
         inkscape:connector-curvature="0"
         sodipodi:nodetypes="sssss" />
      <path
         sodipodi:nodetypes="sssss"
         inkscape:connector-curvature="0"
         id="path3846"
         d="m 31.537804,183.19318 c 0,2.74792 -1.047822,7.23714 -6.949004,7.23714 -5.901184,0 -6.949006,-4.48922 -6.949006,-7.23714 0,-2.7479 1.047822,-13.41885 6.949006,-13.41885 5.901176,0 6.949004,10.67095 6.949004,13.41885 z"
         style="fill:#000000;fill-opacity:1;stroke:#000000;stroke-width:1.20591271;stroke-linecap:round;stroke-linejoin:round;stroke-miterlimit:4;stroke-dasharray:none;stroke-dashoffset:0;stroke-opacity:1" />
    </g>
    <g
       transform="matrix(0.65819938,0,0,0.65823086,51.903804,-106.27326)"
       id="g3854"
       style="stroke-width:1.51926017">
      <path
         sodipodi:nodetypes="sssss"
         inkscape:connector-curvature="0"
         id="path3850"
         d="m 31.537804,156.16982 c 0,-2.74792 -1.047822,-7.23714 -6.949004,-7.23714 -5.901184,0 -6.949006,4.48922 -6.949006,7.23714 0,2.7479 1.047822,13.41885 6.949006,13.41885 5.901176,0 6.949004,-10.67095 6.949004,-13.41885 z"
         style="fill:none;fill-opacity:1;stroke:#000000;stroke-width:1.20591271;stroke-linecap:round;stroke-linejoin:round;stroke-miterlimit:4;stroke-dasharray:none;stroke-dashoffset:0;stroke-opacity:1" />
      <path
         style="fill:#000000;fill-opacity:1;stroke:#000000;stroke-width:1.20591271;stroke-linecap:round;stroke-linejoin:round;stroke-miterlimit:4;stroke-dasharray:none;stroke-dashoffset:0;stroke-opacity:1"
         d="m 31.537804,183.19318 c 0,2.74792 -1.047822,7.23714 -6.949004,7.23714 -5.901184,0 -6.949006,-4.48922 -6.949006,-7.23714 0,-2.7479 1.047822,-13.41885 6.949006,-13.41885 5.901176,0 6.949004,10.67095 6.949004,13.41885 z"
         id="path3852"
         inkscape:connector-curvature="0"
         sodipodi:nodetypes="sssss" />
    </g>
    <path
       style="fill:#000000;fill-opacity:1;stroke:#000000;stroke-width:0.79374999;stroke-linecap:butt;stroke-linejoin:miter;stroke-miterlimit:4;stroke-dasharray:none;stroke-opacity:1"
       d="M 81.809634,6.0087523 H 101.68821"
       id="path3856"
       inkscape:connector-curvature="0" />
    <text
       xml:space="preserve"
       style="font-style:normal;font-weight:normal;font-size:6.96610975px;line-height:1.25;font-family:sans-serif;letter-spacing:0px;word-spacing:0px;fill:#000000;fill-opacity:1;stroke:none;stroke-width:0.26458332"
       x="111.01445"
       y="7.9304113"
       id="text3864"
       transform="scale(0.9999761,1.0000239)"><tspan
         sodipodi:role="line"
         id="tspan3862"
         x="111.01445"
         y="7.9304113"
         style="stroke-width:0.26458332">antibonding</tspan></text>
    <text
       id="text3868"
       y="58.243774"
       x="111.01445"
       style="font-style:normal;font-weight:normal;font-size:6.96610975px;line-height:1.25;font-family:sans-serif;letter-spacing:0px;word-spacing:0px;fill:#000000;fill-opacity:1;stroke:none;stroke-width:0.26458332"
       xml:space="preserve"
       transform="scale(0.9999761,1.0000239)"><tspan
         style="stroke-width:0.26458332"
         y="58.243774"
         x="111.01445"
         id="tspan3866"
         sodipodi:role="line">nonbonding</tspan></text>
    <text
       xml:space="preserve"
       style="font-style:normal;font-weight:normal;font-size:6.96610975px;line-height:1.25;font-family:sans-serif;letter-spacing:0px;word-spacing:0px;fill:#000000;fill-opacity:1;stroke:none;stroke-width:0.26458332"
       x="111.01445"
       y="106.79793"
       id="text3872"
       transform="scale(0.9999761,1.0000239)"><tspan
         sodipodi:role="line"
         id="tspan3870"
         x="111.01445"
         y="106.79793"
         style="stroke-width:0.26458332">bonding</tspan></text>
    <path
       style="fill:none;stroke:#000000;stroke-width:0.79374999;stroke-linecap:butt;stroke-linejoin:miter;stroke-miterlimit:3.9000001;stroke-dasharray:none;stroke-opacity:1;marker-end:url(#marker4878)"
       d="m 88.938289,54.821216 v -8.774"
       id="path4874"
       inkscape:connector-curvature="0" />
  </g>
</svg>
