<?xml version="1.0" encoding="UTF-8"?>

<!DOCTYPE svg PUBLIC '-//W3C//DTD SVG 1.0//EN' 'http://www.w3.org/TR/2001/REC-SVG-20010904/DTD/svg10.dtd'>
<svg fill-opacity="1" xmlns:xlink="http://www.w3.org/1999/xlink" color-rendering="auto" color-interpolation="auto" text-rendering="auto" stroke="black" stroke-linecap="square" stroke-miterlimit="10" shape-rendering="auto" stroke-opacity="1" fill="black" stroke-dasharray="none" font-weight="normal" stroke-width="1" xmlns="http://www.w3.org/2000/svg" font-family="&apos;Dialog&apos;" font-style="normal" stroke-linejoin="miter" font-size="12" stroke-dashoffset="0" image-rendering="auto">
  <!--Generated by the Batik Graphics2D SVG Generator-->
  <defs id="genericDefs" />
  <g>
    <g text-rendering="optimizeLegibility" stroke-width="0.098" transform="scale(28.2491,28.2491) translate(0.399,9.17)" stroke-linecap="round" stroke-linejoin="round">
      <line y2="-4.2813" fill="none" x1="0.35" x2="0.8624" y1="-3.9855" />
      <path fill="none" d="M6.2022 -5.5334 L6.2022 -4.4834 M5.9222 -5.5334 L5.9222 -4.4834" />
      <path fill="none" d="M1.9028 -5.1678 L1.5877 -4.7492 M1.6791 -5.3362 L1.364 -4.9176" />
      <path fill="none" d="M0.6746 -5.2294 L0.9677 -4.9316 M0.4751 -5.033 L0.7682 -4.7352" />
      <line y2="-4.4834" fill="none" x1="6.9246" x2="6.0622" y1="-3.9855" />
      <line y2="-2.3834" fill="none" x1="1.5624" x2="2.4249" y1="-1.8855" />
      <path fill="none" d="M10.0028 0 L10.7028 -1.2124 M9.8478 -0.2916 L10.3728 -1.2009" />
      <line y2="-0.2911" fill="none" x1="10.0028" x2="8.6334" y1="0" />
      <line y2="-1.9028" fill="none" x1="10.7028" x2="10.0811" y1="-1.2124" />
      <path fill="none" d="M8.6334 -0.2911 L8.487 -1.6834 M8.8936 -0.4944 L8.7838 -1.5386" />
      <line y2="-2.3834" fill="none" x1="3.6373" x2="2.4249" y1="-1.6834" />
      <path fill="none" d="M3.6373 -1.6834 L4.8497 -2.3834 M3.6488 -2.0134 L4.5581 -2.5384" />
      <path fill="none" d="M3.6373 -4.4834 L4.8497 -3.7834 M3.6488 -4.1534 L4.5581 -3.6284" />
      <line y2="-3.7834" fill="none" x1="3.6373" x2="2.4249" y1="-4.4834" />
      <line y2="-1.8855" fill="none" x1="7.2746" x2="6.4122" y1="-2.3834" />
      <line y2="-1.6834" fill="none" x1="7.2746" x2="8.487" y1="-2.3834" />
      <line y2="-2.3834" fill="none" x1="5.7122" x2="4.8497" y1="-1.8855" />
      <line y2="-1.6834" fill="none" x1="9.416" x2="8.487" y1="-2.097" />
      <line y2="-3.7834" fill="none" x1="6.0622" x2="4.8497" y1="-4.4834" />
      <path fill="none" d="M2.4249 -2.3834 L2.4249 -3.7834 M2.7049 -2.5584 L2.7049 -3.6084" />
      <line y2="-3.7834" fill="none" x1="4.8497" x2="4.8497" y1="-2.3834" />
      <line y2="-4.2813" fill="none" x1="2.4249" x2="1.5624" y1="-3.7834" />
      <path fill="blue" d="M0.5469 0 L0.5469 -4.3438 L1.3438 -4.3438 L3.3438 -1.375 L3.3438 -4.3438 L4.0625 -4.3438 L4.0625 0 L3.2656 0 L1.2656 -2.9688 L1.2656 0 L0.5469 0 Z" transform="translate(-0.2261,-3.5384) scale(0.1128,0.1128)" stroke="none" />
    </g>
    <g stroke-linecap="round" transform="matrix(28.2491,0,0,28.2491,11.2714,259.044) translate(5.7915,-5.6384) scale(0.1078,0.1078)" fill="red" text-rendering="optimizeLegibility" stroke-linejoin="round" stroke="red" stroke-width="0.098">
      <path d="M2.4375 0.1094 Q1.4531 0.1094 0.8594 -0.5156 Q0.2656 -1.1406 0.2656 -2.1719 Q0.2656 -3.2188 0.8672 -3.8281 Q1.4688 -4.4375 2.4688 -4.4375 Q3.4844 -4.4375 4.0781 -3.8281 Q4.6719 -3.2188 4.6719 -2.1719 Q4.6719 -1.1094 4.0781 -0.5 Q3.4844 0.1094 2.4375 0.1094 ZM2.4531 -0.4844 Q3.0312 -0.4844 3.375 -0.9453 Q3.7188 -1.4062 3.7188 -2.1875 Q3.7188 -2.9375 3.375 -3.3906 Q3.0312 -3.8438 2.4688 -3.8438 Q1.9062 -3.8438 1.5703 -3.3906 Q1.2344 -2.9375 1.2344 -2.1719 Q1.2344 -1.4062 1.5703 -0.9453 Q1.9062 -0.4844 2.4531 -0.4844 Z" stroke="none" />
    </g>
    <g stroke-linecap="round" transform="matrix(28.2491,0,0,28.2491,11.2714,259.044) translate(1.7837,-5.357) scale(0.1078,0.1078)" fill="red" text-rendering="optimizeLegibility" stroke-linejoin="round" stroke="red" stroke-width="0.098">
      <path d="M2.4375 0.1094 Q1.4531 0.1094 0.8594 -0.5156 Q0.2656 -1.1406 0.2656 -2.1719 Q0.2656 -3.2188 0.8672 -3.8281 Q1.4688 -4.4375 2.4688 -4.4375 Q3.4844 -4.4375 4.0781 -3.8281 Q4.6719 -3.2188 4.6719 -2.1719 Q4.6719 -1.1094 4.0781 -0.5 Q3.4844 0.1094 2.4375 0.1094 ZM2.4531 -0.4844 Q3.0312 -0.4844 3.375 -0.9453 Q3.7188 -1.4062 3.7188 -2.1875 Q3.7188 -2.9375 3.375 -3.3906 Q3.0312 -3.8438 2.4688 -3.8438 Q1.9062 -3.8438 1.5703 -3.3906 Q1.2344 -2.9375 1.2344 -2.1719 Q1.2344 -1.4062 1.5703 -0.9453 Q1.9062 -0.4844 2.4531 -0.4844 Z" stroke="none" />
    </g>
    <g stroke-linecap="round" transform="matrix(28.2491,0,0,28.2491,11.2714,259.044) translate(-0.0403,-5.2362) scale(0.1078,0.1078)" fill="red" text-rendering="optimizeLegibility" stroke-linejoin="round" stroke="red" stroke-width="0.098">
      <path d="M2.4375 0.1094 Q1.4531 0.1094 0.8594 -0.5156 Q0.2656 -1.1406 0.2656 -2.1719 Q0.2656 -3.2188 0.8672 -3.8281 Q1.4688 -4.4375 2.4688 -4.4375 Q3.4844 -4.4375 4.0781 -3.8281 Q4.6719 -3.2188 4.6719 -2.1719 Q4.6719 -1.1094 4.0781 -0.5 Q3.4844 0.1094 2.4375 0.1094 ZM2.4531 -0.4844 Q3.0312 -0.4844 3.375 -0.9453 Q3.7188 -1.4062 3.7188 -2.1875 Q3.7188 -2.9375 3.375 -3.3906 Q3.0312 -3.8438 2.4688 -3.8438 Q1.9062 -3.8438 1.5703 -3.3906 Q1.2344 -2.9375 1.2344 -2.1719 Q1.2344 -1.4062 1.5703 -0.9453 Q1.9062 -0.4844 2.4531 -0.4844 Z" stroke="none" />
    </g>
    <g stroke-linecap="round" transform="matrix(28.2491,0,0,28.2491,11.2714,259.044) translate(7.0039,-3.5384) scale(0.1078,0.1078)" fill="red" text-rendering="optimizeLegibility" stroke-linejoin="round" stroke="red" stroke-width="0.098">
      <path d="M2.4375 0.1094 Q1.4531 0.1094 0.8594 -0.5156 Q0.2656 -1.1406 0.2656 -2.1719 Q0.2656 -3.2188 0.8672 -3.8281 Q1.4688 -4.4375 2.4688 -4.4375 Q3.4844 -4.4375 4.0781 -3.8281 Q4.6719 -3.2188 4.6719 -2.1719 Q4.6719 -1.1094 4.0781 -0.5 Q3.4844 0.1094 2.4375 0.1094 ZM2.4531 -0.4844 Q3.0312 -0.4844 3.375 -0.9453 Q3.7188 -1.4062 3.7188 -2.1875 Q3.7188 -2.9375 3.375 -3.3906 Q3.0312 -3.8438 2.4688 -3.8438 Q1.9062 -3.8438 1.5703 -3.3906 Q1.2344 -2.9375 1.2344 -2.1719 Q1.2344 -1.4062 1.5703 -0.9453 Q1.9062 -0.4844 2.4531 -0.4844 Z" stroke="none" />
    </g>
    <g stroke-linecap="round" transform="matrix(28.2491,0,0,28.2491,11.2714,259.044) translate(0.8929,-1.4384) scale(0.1035,0.1035)" fill="lime" text-rendering="optimizeLegibility" stroke-linejoin="round" stroke="lime" stroke-width="0.098">
      <path d="M4.0312 -0.1719 Q3.4062 0.1094 2.5312 0.1094 Q1.4688 0.1094 0.8672 -0.4922 Q0.2656 -1.0938 0.2656 -2.1719 Q0.2656 -3.2656 0.8672 -3.8516 Q1.4688 -4.4375 2.5781 -4.4375 Q3.2969 -4.4375 3.9844 -4.2812 L3.9844 -3.5781 Q3.2031 -3.8438 2.6562 -3.8438 Q1.9688 -3.8438 1.6016 -3.4141 Q1.2344 -2.9844 1.2344 -2.1875 Q1.2344 -1.3906 1.6328 -0.9531 Q2.0312 -0.5156 2.75 -0.5156 Q3.375 -0.5156 4.0312 -0.8438 L4.0312 -0.1719 ZM4.8213 0 L4.8213 -4.625 L5.6807 -4.625 L5.6807 0 L4.8213 0 Z" stroke="none" />
    </g>
    <g stroke-linecap="round" transform="matrix(28.2491,0,0,28.2491,11.2714,259.044) translate(5.8361,-1.4384) scale(0.1128,0.1128)" fill="blue" text-rendering="optimizeLegibility" stroke-linejoin="round" stroke="blue" stroke-width="0.098">
      <path d="M0.5469 0 L0.5469 -4.3438 L1.3438 -4.3438 L3.3438 -1.375 L3.3438 -4.3438 L4.0625 -4.3438 L4.0625 0 L3.2656 0 L1.2656 -2.9688 L1.2656 0 L0.5469 0 Z" stroke="none" />
    </g>
    <g stroke-linecap="round" transform="matrix(28.2491,0,0,28.2491,11.2714,259.044) translate(9.4953,-2.0078) scale(0.1078,0.1078)" fill="red" text-rendering="optimizeLegibility" stroke-linejoin="round" stroke="red" stroke-width="0.098">
      <path d="M2.4375 0.1094 Q1.4531 0.1094 0.8594 -0.5156 Q0.2656 -1.1406 0.2656 -2.1719 Q0.2656 -3.2188 0.8672 -3.8281 Q1.4688 -4.4375 2.4688 -4.4375 Q3.4844 -4.4375 4.0781 -3.8281 Q4.6719 -3.2188 4.6719 -2.1719 Q4.6719 -1.1094 4.0781 -0.5 Q3.4844 0.1094 2.4375 0.1094 ZM2.4531 -0.4844 Q3.0312 -0.4844 3.375 -0.9453 Q3.7188 -1.4062 3.7188 -2.1875 Q3.7188 -2.9375 3.375 -3.3906 Q3.0312 -3.8438 2.4688 -3.8438 Q1.9062 -3.8438 1.5703 -3.3906 Q1.2344 -2.9375 1.2344 -2.1719 Q1.2344 -1.4062 1.5703 -0.9453 Q1.9062 -0.4844 2.4531 -0.4844 Z" stroke="none" />
    </g>
    <g stroke-linecap="round" transform="matrix(28.2491,0,0,28.2491,11.2714,259.044) translate(1.0339,-4.2384) scale(0.1078,0.1078)" fill="rgb(255,200,0)" text-rendering="optimizeLegibility" stroke-linejoin="round" stroke="rgb(255,200,0)" stroke-width="0.098">
      <path d="M0.2969 -0.0312 L0.2969 -0.7812 Q1 -0.4844 1.5 -0.4844 Q1.8438 -0.4844 2.0469 -0.6406 Q2.25 -0.7969 2.25 -1.0625 Q2.25 -1.2812 2.125 -1.4219 Q2 -1.5625 1.6406 -1.7656 L1.3594 -1.9219 Q0.7656 -2.25 0.5312 -2.5547 Q0.2969 -2.8594 0.2969 -3.2656 Q0.2969 -3.7969 0.6875 -4.1172 Q1.0781 -4.4375 1.7188 -4.4375 Q2.25 -4.4375 2.8906 -4.2969 L2.8906 -3.5938 Q2.2344 -3.8438 1.8438 -3.8438 Q1.5469 -3.8438 1.3672 -3.7109 Q1.1875 -3.5781 1.1875 -3.3594 Q1.1875 -3.1875 1.3125 -3.0547 Q1.4375 -2.9219 1.7812 -2.7188 L2.0938 -2.5469 Q2.7188 -2.2031 2.9609 -1.9062 Q3.2031 -1.6094 3.2031 -1.1875 Q3.2031 -0.5781 2.75 -0.2344 Q2.2969 0.1094 1.5156 0.1094 Q0.9844 0.1094 0.2969 -0.0312 Z" stroke="none" />
    </g>
  </g>
</svg>
