<?xml version="1.0" encoding="UTF-8"?>

<!DOCTYPE svg PUBLIC '-//W3C//DTD SVG 1.0//EN' 'http://www.w3.org/TR/2001/REC-SVG-20010904/DTD/svg10.dtd'>
<svg fill-opacity="1" xmlns:xlink="http://www.w3.org/1999/xlink" color-rendering="auto" color-interpolation="auto" text-rendering="auto" stroke="black" stroke-linecap="square" stroke-miterlimit="10" shape-rendering="auto" stroke-opacity="1" fill="black" stroke-dasharray="none" font-weight="normal" stroke-width="1" xmlns="http://www.w3.org/2000/svg" font-family="&apos;Dialog&apos;" font-style="normal" stroke-linejoin="miter" font-size="12" stroke-dashoffset="0" image-rendering="auto">
  <!--Generated by the Batik Graphics2D SVG Generator-->
  <defs id="genericDefs" />
  <g>
    <g text-rendering="optimizeLegibility" stroke-width="0.098" transform="scale(39.9916,39.9916) translate(0.049,3.9842)" stroke-linecap="round" stroke-linejoin="round">
      <line y2="-2.5979" fill="none" x1="9.429" x2="8.5666" y1="-2.1" />
      <line y2="-2.1" fill="none" x1="7.0041" x2="7.0041" y1="-0.7" />
      <path fill="none" d="M4.5792 -0.7 L3.3668 0 M4.2876 -0.855 L3.3783 -0.33" />
      <line y2="-2.1" fill="none" x1="4.5792" x2="4.5792" y1="-0.7" />
      <line y2="-0.7" fill="none" x1="3.3668" x2="2.1544" y1="0" />
      <path fill="none" d="M3.3668 -2.8 L4.5792 -2.1 M3.3783 -2.47 L4.2876 -1.945" />
      <line y2="-2.1" fill="none" x1="3.3668" x2="2.1544" y1="-2.8" />
      <line y2="-0.6174" fill="none" x1="0" x2="0.5686" y1="-1.4" />
      <line y2="-2.1826" fill="none" x1="0" x2="0.5686" y1="-1.4" />
      <line y2="-2.1" fill="none" x1="5.7917" x2="4.5792" y1="-2.8" />
      <line y2="-2.1" fill="none" x1="5.7917" x2="7.0041" y1="-2.8" />
      <line y2="-2.1" fill="none" x1="7.8666" x2="7.0041" y1="-2.5979" />
      <line y2="-0.7" fill="none" x1="1.1729" x2="2.1544" y1="-0.3811" />
      <line y2="-2.1" fill="none" x1="1.1729" x2="2.1544" y1="-2.4189" />
      <path fill="none" d="M2.1544 -0.7 L2.1544 -2.1 M2.4344 -0.875 L2.4344 -1.925" />
      <path fill="blue" d="M0.5469 0 L0.5469 -4.3438 L1.3438 -4.3438 L3.3438 -1.375 L3.3438 -4.3438 L4.0625 -4.3438 L4.0625 0 L3.2656 0 L1.2656 -2.9688 L1.2656 0 L0.5469 0 Z" transform="translate(7.9905,-2.555) scale(0.1128,0.1128)" stroke="none" />
    </g>
    <g stroke-linecap="round" transform="matrix(39.9916,0,0,39.9916,1.9596,159.3351) translate(0.5522,-0.0224) scale(0.1078,0.1078)" fill="red" text-rendering="optimizeLegibility" stroke-linejoin="round" stroke="red" stroke-width="0.098">
      <path d="M2.4375 0.1094 Q1.4531 0.1094 0.8594 -0.5156 Q0.2656 -1.1406 0.2656 -2.1719 Q0.2656 -3.2188 0.8672 -3.8281 Q1.4688 -4.4375 2.4688 -4.4375 Q3.4844 -4.4375 4.0781 -3.8281 Q4.6719 -3.2188 4.6719 -2.1719 Q4.6719 -1.1094 4.0781 -0.5 Q3.4844 0.1094 2.4375 0.1094 ZM2.4531 -0.4844 Q3.0312 -0.4844 3.375 -0.9453 Q3.7188 -1.4062 3.7188 -2.1875 Q3.7188 -2.9375 3.375 -3.3906 Q3.0312 -3.8438 2.4688 -3.8438 Q1.9062 -3.8438 1.5703 -3.3906 Q1.2344 -2.9375 1.2344 -2.1719 Q1.2344 -1.4062 1.5703 -0.9453 Q1.9062 -0.4844 2.4531 -0.4844 Z" stroke="none" />
    </g>
    <g stroke-linecap="round" transform="matrix(39.9916,0,0,39.9916,1.9596,159.3351) translate(0.5522,-2.2876) scale(0.1078,0.1078)" fill="red" text-rendering="optimizeLegibility" stroke-linejoin="round" stroke="red" stroke-width="0.098">
      <path d="M2.4375 0.1094 Q1.4531 0.1094 0.8594 -0.5156 Q0.2656 -1.1406 0.2656 -2.1719 Q0.2656 -3.2188 0.8672 -3.8281 Q1.4688 -4.4375 2.4688 -4.4375 Q3.4844 -4.4375 4.0781 -3.8281 Q4.6719 -3.2188 4.6719 -2.1719 Q4.6719 -1.1094 4.0781 -0.5 Q3.4844 0.1094 2.4375 0.1094 ZM2.4531 -0.4844 Q3.0312 -0.4844 3.375 -0.9453 Q3.7188 -1.4062 3.7188 -2.1875 Q3.7188 -2.9375 3.375 -3.3906 Q3.0312 -3.8438 2.4688 -3.8438 Q1.9062 -3.8438 1.5703 -3.3906 Q1.2344 -2.9375 1.2344 -2.1719 Q1.2344 -1.4062 1.5703 -0.9453 Q1.9062 -0.4844 2.4531 -0.4844 Z" stroke="none" />
    </g>
  </g>
</svg>
