<?xml version="1.0" encoding="UTF-8"?>

<!DOCTYPE svg PUBLIC '-//W3C//DTD SVG 1.0//EN' 'http://www.w3.org/TR/2001/REC-SVG-20010904/DTD/svg10.dtd'>
<svg fill-opacity="1" xmlns:xlink="http://www.w3.org/1999/xlink" color-rendering="auto" color-interpolation="auto" text-rendering="auto" stroke="black" stroke-linecap="square" stroke-miterlimit="10" shape-rendering="auto" stroke-opacity="1" fill="black" stroke-dasharray="none" font-weight="normal" stroke-width="1" xmlns="http://www.w3.org/2000/svg" font-family="&apos;Dialog&apos;" font-style="normal" stroke-linejoin="miter" font-size="12" stroke-dashoffset="0" image-rendering="auto">
	
  <!--Now, a test to see if Google indexes the InChI -->
  <metadata>
	  <rdf:RDF
		  xmlns:rdf = "http://www.w3.org/1999/02/22-rdf-syntax-ns#"
		  xmlns:rdfs = "http://www.w3.org/2000/01/rdf-schema#"
		  xmlns:dc = "http://purl.org/dc/elements/1.1/" >
		  <rdf:Description about="http://depth-first.com"
				   dc:title="InChI=1/C17H13ClN4/c1-11-20-21-16-10-19-17(12-5-3-2-4-6-12)14-9-13(18)7-8-15(14)22(11)16/h2-9H,10H2,1H3"
				   dc:format="image/svg+xml"
				   dc:language="en" >
			  <dc:creator>
				  <rdf:Bag>
					  <rdf:li>Richard L. Apodaca</rdf:li>
				  </rdf:Bag>
			  </dc:creator>
		  </rdf:Description>
	  </rdf:RDF>
  </metadata>
  
  <!--Generated by the Batik Graphics2D SVG Generator-->
  <defs id="genericDefs" />
  <g>
    <g text-rendering="optimizeLegibility" stroke-width="0.098" transform="scale(35.5026,35.5026) translate(1.0289,9.5841)" stroke-linecap="round" stroke-linejoin="round">
      <line y2="-8.6348" fill="none" x1="3.4045" x2="4.6064" y1="-9.3529" />
      <line y2="-4.9676" fill="none" x1="0.35" x2="1.2124" y1="-4.4697" />
      <line y2="-0.4127" fill="none" x1="3.7973" x2="5.1351" y1="0" />
      <path fill="none" d="M3.7973 0 L2.771 -0.9522 M3.8595 -0.3243 L3.0897 -1.0384" />
      <path fill="none" d="M5.1351 -0.4127 L5.4466 -1.7776 M4.9011 -0.6456 L5.1347 -1.6693" />
      <line y2="-2.3171" fill="none" x1="2.771" x2="3.0825" y1="-0.9522" />
      <line y2="-2.7298" fill="none" x1="5.4466" x2="4.4203" y1="-1.7776" />
      <path fill="none" d="M3.0825 -2.3171 L4.4203 -2.7298 M3.3323 -2.1011 L4.3356 -2.4107" />
      <line y2="-7.0676" fill="none" x1="1.2124" x2="2.4249" y1="-6.3676" />
      <path fill="none" d="M1.2124 -6.3676 L1.2124 -4.9676 M1.4924 -6.1926 L1.4924 -5.1426" />
      <path fill="none" d="M2.4249 -7.0676 L3.6373 -6.3676 M2.4364 -6.7376 L3.3457 -6.2126" />
      <line y2="-4.9676" fill="none" x1="2.4249" x2="1.2124" y1="-4.2676" />
      <path fill="none" d="M2.4249 -4.2676 L3.6373 -4.9676 M2.4364 -4.5976 L3.3457 -5.1226" />
      <line y2="-4.7562" fill="none" x1="6.7042" x2="6.2653" y1="-5.6676" />
      <line y2="-6.9289" fill="none" x1="6.7042" x2="6.0968" y1="-5.6676" />
      <path fill="none" d="M5.7468 -4.3263 L4.7319 -4.0947 M5.5576 -4.5704 L4.7965 -4.3966" />
      <line y2="-8.4808" fill="none" x1="6.1995" x2="6.509" y1="-8.8351" />
      <path fill="none" d="M5.5437 -9.0355 L4.6064 -8.6348 M5.5366 -8.7279 L4.8336 -8.4274" />
      <path fill="none" d="M6.6057 -7.7808 L6.0968 -6.9289 M6.3017 -7.8179 L5.92 -7.179" />
      <line y2="-2.7298" fill="none" x1="4.7319" x2="4.4203" y1="-4.0947" />
      <line y2="-4.9676" fill="none" x1="4.7319" x2="3.6373" y1="-4.0947" />
      <line y2="-7.5905" fill="none" x1="4.6064" x2="4.7004" y1="-8.6348" />
      <line y2="-6.3676" fill="none" x1="3.6373" x2="3.6373" y1="-4.9676" />
      <line y2="-7.1606" fill="none" x1="6.0968" x2="5.0819" y1="-6.9289" />
      <line y2="-6.9614" fill="none" x1="3.6373" x2="4.3819" y1="-6.3676" />
      <path fill="lime" d="M4.0312 -0.1719 Q3.4062 0.1094 2.5312 0.1094 Q1.4688 0.1094 0.8672 -0.4922 Q0.2656 -1.0938 0.2656 -2.1719 Q0.2656 -3.2656 0.8672 -3.8516 Q1.4688 -4.4375 2.5781 -4.4375 Q3.2969 -4.4375 3.9844 -4.2812 L3.9844 -3.5781 Q3.2031 -3.8438 2.6562 -3.8438 Q1.9688 -3.8438 1.6016 -3.4141 Q1.2344 -2.9844 1.2344 -2.1875 Q1.2344 -1.3906 1.6328 -0.9531 Q2.0312 -0.5156 2.75 -0.5156 Q3.375 -0.5156 4.0312 -0.8438 L4.0312 -0.1719 ZM4.8213 0 L4.8213 -4.625 L5.6807 -4.625 L5.6807 0 L4.8213 0 Z" transform="translate(-0.3195,-4.0226) scale(0.1035,0.1035)" stroke="none" />
    </g>
    <g stroke-linecap="round" transform="matrix(35.5026,0,0,35.5026,36.5285,340.2603) translate(5.8707,-4.1612) scale(0.1128,0.1128)" fill="blue" text-rendering="optimizeLegibility" stroke-linejoin="round" stroke="blue" stroke-width="0.098">
      <path d="M0.5469 0 L0.5469 -4.3438 L1.3438 -4.3438 L3.3438 -1.375 L3.3438 -4.3438 L4.0625 -4.3438 L4.0625 0 L3.2656 0 L1.2656 -2.9688 L1.2656 0 L0.5469 0 Z" stroke="none" />
    </g>
    <g stroke-linecap="round" transform="matrix(35.5026,0,0,35.5026,36.5285,340.2603) translate(5.6676,-8.9401) scale(0.1128,0.1128)" fill="blue" text-rendering="optimizeLegibility" stroke-linejoin="round" stroke="blue" stroke-width="0.098">
      <path d="M0.5469 0 L0.5469 -4.3438 L1.3438 -4.3438 L3.3438 -1.375 L3.3438 -4.3438 L4.0625 -4.3438 L4.0625 0 L3.2656 0 L1.2656 -2.9688 L1.2656 0 L0.5469 0 Z" stroke="none" />
    </g>
    <g stroke-linecap="round" transform="matrix(35.5026,0,0,35.5026,36.5285,340.2603) translate(6.5887,-7.8858) scale(0.1128,0.1128)" fill="blue" text-rendering="optimizeLegibility" stroke-linejoin="round" stroke="blue" stroke-width="0.098">
      <path d="M0.5469 0 L0.5469 -4.3438 L1.3438 -4.3438 L3.3438 -1.375 L3.3438 -4.3438 L4.0625 -4.3438 L4.0625 0 L3.2656 0 L1.2656 -2.9688 L1.2656 0 L0.5469 0 Z" stroke="none" />
    </g>
    <g stroke-linecap="round" transform="matrix(35.5026,0,0,35.5026,36.5285,340.2603) translate(4.5058,-6.9955) scale(0.1128,0.1128)" fill="blue" text-rendering="optimizeLegibility" stroke-linejoin="round" stroke="blue" stroke-width="0.098">
      <path d="M0.5469 0 L0.5469 -4.3438 L1.3438 -4.3438 L3.3438 -1.375 L3.3438 -4.3438 L4.0625 -4.3438 L4.0625 0 L3.2656 0 L1.2656 -2.9688 L1.2656 0 L0.5469 0 Z" stroke="none" />
    </g>
  </g>
</svg>
