<?xml version="1.0" encoding="UTF-8"?>

<!DOCTYPE svg PUBLIC '-//W3C//DTD SVG 1.0//EN' 'http://www.w3.org/TR/2001/REC-SVG-20010904/DTD/svg10.dtd'>
<svg fill-opacity="1" xmlns:xlink="http://www.w3.org/1999/xlink" color-rendering="auto" color-interpolation="auto" text-rendering="auto" stroke="black" stroke-linecap="square" stroke-miterlimit="10" shape-rendering="auto" stroke-opacity="1" fill="black" stroke-dasharray="none" font-weight="normal" stroke-width="1" xmlns="http://www.w3.org/2000/svg" font-family="&apos;Dialog&apos;" font-style="normal" stroke-linejoin="miter" font-size="12" stroke-dashoffset="0" image-rendering="auto">
  <!--Generated by the Batik Graphics2D SVG Generator-->
  <defs id="genericDefs" />
  <g>
    <g text-rendering="optimizeLegibility" stroke-width="0.098" transform="scale(43.3098,43.3098) translate(0.9469,7.4976)" stroke-linecap="round" stroke-linejoin="round">
      <path fill="none" d="M3.0552 -6.7486 L3.0552 -5.6986 M2.7752 -6.7486 L2.7752 -5.6986" />
      <line y2="-1.1326" fill="none" x1="1.3932" x2="1.9618" y1="-0.35" />
      <line y2="-4.8757" fill="none" x1="5.0293" x2="4.0479" y1="-5.1946" />
      <line y2="-3.5442" fill="none" x1="4.1838" x2="3.6152" y1="-2.7616" />
      <line y2="-2.4116" fill="none" x1="0.35" x2="1.3923" y1="-2.5211" />
      <line y2="-2.4116" fill="none" x1="1.9618" x2="1.3923" y1="-1.1326" />
      <line y2="-5.6986" fill="none" x1="2.1326" x2="2.9152" y1="-5.13" />
      <line y2="-3.5442" fill="none" x1="1.8963" x2="2.2152" y1="-4.5257" />
      <line y2="-4.8757" fill="none" x1="2.9152" x2="4.0479" y1="-5.6986" />
      <path fill="none" d="M4.0479 -4.8757 L3.6152 -3.5442 M3.7275 -4.7958 L3.403 -3.7972" />
      <line y2="-3.5442" fill="none" x1="3.6152" x2="2.2152" y1="-3.5442" />
      <line y2="-3.5442" fill="none" x1="1.3923" x2="2.2152" y1="-2.4116" />
      <path fill="red" d="M2.4375 0.1094 Q1.4531 0.1094 0.8594 -0.5156 Q0.2656 -1.1406 0.2656 -2.1719 Q0.2656 -3.2188 0.8672 -3.8281 Q1.4688 -4.4375 2.4688 -4.4375 Q3.4844 -4.4375 4.0781 -3.8281 Q4.6719 -3.2188 4.6719 -2.1719 Q4.6719 -1.1094 4.0781 -0.5 Q3.4844 0.1094 2.4375 0.1094 ZM2.4531 -0.4844 Q3.0312 -0.4844 3.375 -0.9453 Q3.7188 -1.4062 3.7188 -2.1875 Q3.7188 -2.9375 3.375 -3.3906 Q3.0312 -3.8438 2.4688 -3.8438 Q1.9062 -3.8438 1.5703 -3.3906 Q1.2344 -2.9375 1.2344 -2.1719 Q1.2344 -1.4062 1.5703 -0.9453 Q1.9062 -0.4844 2.4531 -0.4844 Z" transform="translate(2.6445,-6.8536) scale(0.1078,0.1078)" stroke="none" />
    </g>
    <g stroke-linecap="round" transform="matrix(43.3098,0,0,43.3098,41.0118,324.7194) translate(0.8682,0.245) scale(0.1078,0.1078)" fill="red" text-rendering="optimizeLegibility" stroke-linejoin="round" stroke="red" stroke-width="0.098">
      <path d="M2.4375 0.1094 Q1.4531 0.1094 0.8594 -0.5156 Q0.2656 -1.1406 0.2656 -2.1719 Q0.2656 -3.2188 0.8672 -3.8281 Q1.4688 -4.4375 2.4688 -4.4375 Q3.4844 -4.4375 4.0781 -3.8281 Q4.6719 -3.2188 4.6719 -2.1719 Q4.6719 -1.1094 4.0781 -0.5 Q3.4844 0.1094 2.4375 0.1094 ZM2.4531 -0.4844 Q3.0312 -0.4844 3.375 -0.9453 Q3.7188 -1.4062 3.7188 -2.1875 Q3.7188 -2.9375 3.375 -3.3906 Q3.0312 -3.8438 2.4688 -3.8438 Q1.9062 -3.8438 1.5703 -3.3906 Q1.2344 -2.9375 1.2344 -2.1719 Q1.2344 -1.4062 1.5703 -0.9453 Q1.9062 -0.4844 2.4531 -0.4844 Z" stroke="none" />
    </g>
    <g stroke-linecap="round" transform="matrix(43.3098,0,0,43.3098,41.0118,324.7194) translate(5.1086,-5.0633) scale(0.1078,0.1078)" fill="red" text-rendering="optimizeLegibility" stroke-linejoin="round" stroke="red" stroke-width="0.098">
      <path d="M2.4375 0.1094 Q1.4531 0.1094 0.8594 -0.5156 Q0.2656 -1.1406 0.2656 -2.1719 Q0.2656 -3.2188 0.8672 -3.8281 Q1.4688 -4.4375 2.4688 -4.4375 Q3.4844 -4.4375 4.0781 -3.8281 Q4.6719 -3.2188 4.6719 -2.1719 Q4.6719 -1.1094 4.0781 -0.5 Q3.4844 0.1094 2.4375 0.1094 ZM2.4531 -0.4844 Q3.0312 -0.4844 3.375 -0.9453 Q3.7188 -1.4062 3.7188 -2.1875 Q3.7188 -2.9375 3.375 -3.3906 Q3.0312 -3.8438 2.4688 -3.8438 Q1.9062 -3.8438 1.5703 -3.3906 Q1.2344 -2.9375 1.2344 -2.1719 Q1.2344 -1.4062 1.5703 -0.9453 Q1.9062 -0.4844 2.4531 -0.4844 Z" stroke="none" />
    </g>
    <g stroke-linecap="round" transform="matrix(43.3098,0,0,43.3098,41.0118,324.7194) translate(4.1674,-2.1666) scale(0.1078,0.1078)" fill="red" text-rendering="optimizeLegibility" stroke-linejoin="round" stroke="red" stroke-width="0.098">
      <path d="M2.4375 0.1094 Q1.4531 0.1094 0.8594 -0.5156 Q0.2656 -1.1406 0.2656 -2.1719 Q0.2656 -3.2188 0.8672 -3.8281 Q1.4688 -4.4375 2.4688 -4.4375 Q3.4844 -4.4375 4.0781 -3.8281 Q4.6719 -3.2188 4.6719 -2.1719 Q4.6719 -1.1094 4.0781 -0.5 Q3.4844 0.1094 2.4375 0.1094 ZM2.4531 -0.4844 Q3.0312 -0.4844 3.375 -0.9453 Q3.7188 -1.4062 3.7188 -2.1875 Q3.7188 -2.9375 3.375 -3.3906 Q3.0312 -3.8438 2.4688 -3.8438 Q1.9062 -3.8438 1.5703 -3.3906 Q1.2344 -2.9375 1.2344 -2.1719 Q1.2344 -1.4062 1.5703 -0.9453 Q1.9062 -0.4844 2.4531 -0.4844 Z" stroke="none" />
    </g>
    <g stroke-linecap="round" transform="matrix(43.3098,0,0,43.3098,41.0118,324.7194) translate(-0.2707,-2.3129) scale(0.1078,0.1078)" fill="red" text-rendering="optimizeLegibility" stroke-linejoin="round" stroke="red" stroke-width="0.098">
      <path d="M2.4375 0.1094 Q1.4531 0.1094 0.8594 -0.5156 Q0.2656 -1.1406 0.2656 -2.1719 Q0.2656 -3.2188 0.8672 -3.8281 Q1.4688 -4.4375 2.4688 -4.4375 Q3.4844 -4.4375 4.0781 -3.8281 Q4.6719 -3.2188 4.6719 -2.1719 Q4.6719 -1.1094 4.0781 -0.5 Q3.4844 0.1094 2.4375 0.1094 ZM2.4531 -0.4844 Q3.0312 -0.4844 3.375 -0.9453 Q3.7188 -1.4062 3.7188 -2.1875 Q3.7188 -2.9375 3.375 -3.3906 Q3.0312 -3.8438 2.4688 -3.8438 Q1.9062 -3.8438 1.5703 -3.3906 Q1.2344 -2.9375 1.2344 -2.1719 Q1.2344 -1.4062 1.5703 -0.9453 Q1.9062 -0.4844 2.4531 -0.4844 Z" stroke="none" />
    </g>
    <g stroke-linecap="round" transform="matrix(43.3098,0,0,43.3098,41.0118,324.7194) translate(1.5119,-4.6307) scale(0.1078,0.1078)" fill="red" text-rendering="optimizeLegibility" stroke-linejoin="round" stroke="red" stroke-width="0.098">
      <path d="M2.4375 0.1094 Q1.4531 0.1094 0.8594 -0.5156 Q0.2656 -1.1406 0.2656 -2.1719 Q0.2656 -3.2188 0.8672 -3.8281 Q1.4688 -4.4375 2.4688 -4.4375 Q3.4844 -4.4375 4.0781 -3.8281 Q4.6719 -3.2188 4.6719 -2.1719 Q4.6719 -1.1094 4.0781 -0.5 Q3.4844 0.1094 2.4375 0.1094 ZM2.4531 -0.4844 Q3.0312 -0.4844 3.375 -0.9453 Q3.7188 -1.4062 3.7188 -2.1875 Q3.7188 -2.9375 3.375 -3.3906 Q3.0312 -3.8438 2.4688 -3.8438 Q1.9062 -3.8438 1.5703 -3.3906 Q1.2344 -2.9375 1.2344 -2.1719 Q1.2344 -1.4062 1.5703 -0.9453 Q1.9062 -0.4844 2.4531 -0.4844 Z" stroke="none" />
    </g>
  </g>
</svg>
