<?xml version="1.0" encoding="UTF-8"?>

<!DOCTYPE svg PUBLIC '-//W3C//DTD SVG 1.0//EN' 'http://www.w3.org/TR/2001/REC-SVG-20010904/DTD/svg10.dtd'>
<svg fill-opacity="1" xmlns:xlink="http://www.w3.org/1999/xlink" color-rendering="auto" color-interpolation="auto" text-rendering="auto" stroke="black" stroke-linecap="square" stroke-miterlimit="10" shape-rendering="auto" stroke-opacity="1" fill="black" stroke-dasharray="none" font-weight="normal" stroke-width="1" xmlns="http://www.w3.org/2000/svg" font-family="&apos;Dialog&apos;" font-style="normal" stroke-linejoin="miter" font-size="12" stroke-dashoffset="0" image-rendering="auto">
  <!--Generated by the Batik Graphics2D SVG Generator-->
  <defs id="genericDefs" />
  <g>
    <g text-rendering="optimizeLegibility" stroke-width="0.098" transform="scale(30.0071,30.0071) translate(0.399,8.4985)" stroke-linecap="round" stroke-linejoin="round">
      <line y2="-0.7" fill="none" x1="9.3495" x2="8.487" y1="-0.2021" />
      <line y2="-0.7" fill="none" x1="0.35" x2="1.2124" y1="-0.2021" />
      <line y2="-4.2" fill="none" x1="4.8331" x2="4.8497" y1="-5.2498" />
      <line y2="-4.2" fill="none" x1="3.9873" x2="4.8497" y1="-4.6979" />
      <line y2="-4.2" fill="none" x1="5.7122" x2="4.8497" y1="-4.6979" />
      <path fill="none" d="M8.487 -2.1 L7.2746 -2.8 M8.1954 -1.945 L7.2861 -2.47" />
      <line y2="-0.7" fill="none" x1="8.487" x2="8.487" y1="-2.1" />
      <line y2="-0.7" fill="none" x1="7.2746" x2="6.0622" y1="0" />
      <path fill="none" d="M7.2746 0 L8.487 -0.7 M7.2861 -0.33 L8.1954 -0.855" />
      <line y2="-2.8" fill="none" x1="1.2124" x2="2.4249" y1="-2.1" />
      <path fill="none" d="M1.2124 -2.1 L1.2124 -0.7 M1.4924 -1.925 L1.4924 -0.875" />
      <path fill="none" d="M2.4249 0 L3.6373 -0.7 M2.4364 -0.33 L3.3457 -0.855" />
      <line y2="-0.7" fill="none" x1="2.4249" x2="1.2124" y1="0" />
      <line y2="-2.1" fill="none" x1="7.2746" x2="6.0622" y1="-2.8" />
      <path fill="none" d="M6.0622 -0.7 L6.0622 -2.1 M6.3422 -0.875 L6.3422 -1.925" />
      <path fill="none" d="M2.4249 -2.8 L3.6373 -2.1 M2.4364 -2.47 L3.3457 -1.945" />
      <line y2="-2.1" fill="none" x1="3.6373" x2="3.6373" y1="-0.7" />
      <line y2="-2.8" fill="none" x1="6.0622" x2="4.8497" y1="-2.1" />
      <line y2="-2.8" fill="none" x1="3.6373" x2="4.8497" y1="-2.1" />
      <line y2="-4.2" fill="none" x1="4.8497" x2="4.8497" y1="-2.8" />
      <path fill="lime" d="M4.0312 -0.1719 Q3.4062 0.1094 2.5312 0.1094 Q1.4688 0.1094 0.8672 -0.4922 Q0.2656 -1.0938 0.2656 -2.1719 Q0.2656 -3.2656 0.8672 -3.8516 Q1.4688 -4.4375 2.5781 -4.4375 Q3.2969 -4.4375 3.9844 -4.2812 L3.9844 -3.5781 Q3.2031 -3.8438 2.6562 -3.8438 Q1.9688 -3.8438 1.6016 -3.4141 Q1.2344 -2.9844 1.2344 -2.1875 Q1.2344 -1.3906 1.6328 -0.9531 Q2.0312 -0.5156 2.75 -0.5156 Q3.375 -0.5156 4.0312 -0.8438 L4.0312 -0.1719 ZM4.8213 0 L4.8213 -4.625 L5.6807 -4.625 L5.6807 0 L4.8213 0 Z" transform="translate(9.38,0.245) scale(0.1035,0.1035)" stroke="none" />
    </g>
    <g stroke-linecap="round" transform="matrix(30.0071,0,0,30.0071,11.9728,255.017) translate(-0.3195,0.245) scale(0.1035,0.1035)" fill="lime" text-rendering="optimizeLegibility" stroke-linejoin="round" stroke="lime" stroke-width="0.098">
      <path d="M4.0312 -0.1719 Q3.4062 0.1094 2.5312 0.1094 Q1.4688 0.1094 0.8672 -0.4922 Q0.2656 -1.0938 0.2656 -2.1719 Q0.2656 -3.2656 0.8672 -3.8516 Q1.4688 -4.4375 2.5781 -4.4375 Q3.2969 -4.4375 3.9844 -4.2812 L3.9844 -3.5781 Q3.2031 -3.8438 2.6562 -3.8438 Q1.9688 -3.8438 1.6016 -3.4141 Q1.2344 -2.9844 1.2344 -2.1875 Q1.2344 -1.3906 1.6328 -0.9531 Q2.0312 -0.5156 2.75 -0.5156 Q3.375 -0.5156 4.0312 -0.8438 L4.0312 -0.1719 ZM4.8213 0 L4.8213 -4.625 L5.6807 -4.625 L5.6807 0 L4.8213 0 Z" stroke="none" />
    </g>
    <g stroke-linecap="round" transform="matrix(30.0071,0,0,30.0071,11.9728,255.017) translate(4.508,-5.3548) scale(0.1035,0.1035)" fill="lime" text-rendering="optimizeLegibility" stroke-linejoin="round" stroke="lime" stroke-width="0.098">
      <path d="M4.0312 -0.1719 Q3.4062 0.1094 2.5312 0.1094 Q1.4688 0.1094 0.8672 -0.4922 Q0.2656 -1.0938 0.2656 -2.1719 Q0.2656 -3.2656 0.8672 -3.8516 Q1.4688 -4.4375 2.5781 -4.4375 Q3.2969 -4.4375 3.9844 -4.2812 L3.9844 -3.5781 Q3.2031 -3.8438 2.6562 -3.8438 Q1.9688 -3.8438 1.6016 -3.4141 Q1.2344 -2.9844 1.2344 -2.1875 Q1.2344 -1.3906 1.6328 -0.9531 Q2.0312 -0.5156 2.75 -0.5156 Q3.375 -0.5156 4.0312 -0.8438 L4.0312 -0.1719 ZM4.8213 0 L4.8213 -4.625 L5.6807 -4.625 L5.6807 0 L4.8213 0 Z" stroke="none" />
    </g>
    <g stroke-linecap="round" transform="matrix(30.0071,0,0,30.0071,11.9728,255.017) translate(3.3178,-4.655) scale(0.1035,0.1035)" fill="lime" text-rendering="optimizeLegibility" stroke-linejoin="round" stroke="lime" stroke-width="0.098">
      <path d="M4.0312 -0.1719 Q3.4062 0.1094 2.5312 0.1094 Q1.4688 0.1094 0.8672 -0.4922 Q0.2656 -1.0938 0.2656 -2.1719 Q0.2656 -3.2656 0.8672 -3.8516 Q1.4688 -4.4375 2.5781 -4.4375 Q3.2969 -4.4375 3.9844 -4.2812 L3.9844 -3.5781 Q3.2031 -3.8438 2.6562 -3.8438 Q1.9688 -3.8438 1.6016 -3.4141 Q1.2344 -2.9844 1.2344 -2.1875 Q1.2344 -1.3906 1.6328 -0.9531 Q2.0312 -0.5156 2.75 -0.5156 Q3.375 -0.5156 4.0312 -0.8438 L4.0312 -0.1719 ZM4.8213 0 L4.8213 -4.625 L5.6807 -4.625 L5.6807 0 L4.8213 0 Z" stroke="none" />
    </g>
    <g stroke-linecap="round" transform="matrix(30.0071,0,0,30.0071,11.9728,255.017) translate(5.7427,-4.655) scale(0.1035,0.1035)" fill="lime" text-rendering="optimizeLegibility" stroke-linejoin="round" stroke="lime" stroke-width="0.098">
      <path d="M4.0312 -0.1719 Q3.4062 0.1094 2.5312 0.1094 Q1.4688 0.1094 0.8672 -0.4922 Q0.2656 -1.0938 0.2656 -2.1719 Q0.2656 -3.2656 0.8672 -3.8516 Q1.4688 -4.4375 2.5781 -4.4375 Q3.2969 -4.4375 3.9844 -4.2812 L3.9844 -3.5781 Q3.2031 -3.8438 2.6562 -3.8438 Q1.9688 -3.8438 1.6016 -3.4141 Q1.2344 -2.9844 1.2344 -2.1875 Q1.2344 -1.3906 1.6328 -0.9531 Q2.0312 -0.5156 2.75 -0.5156 Q3.375 -0.5156 4.0312 -0.8438 L4.0312 -0.1719 ZM4.8213 0 L4.8213 -4.625 L5.6807 -4.625 L5.6807 0 L4.8213 0 Z" stroke="none" />
    </g>
  </g>
</svg>
